# xmcd CD database file
#
# Track frame offsets:
#	150
#	58955
#	120625
#	166503
#	222516
#
# Disc length: 3559 seconds
#
# Revision: 1
# Processed by: cddbd v1.5.1PL2 Copyright (c) Steve Scherf et al.
# Submitted via: CDex 1.51
#
DISCID=430de505
DTITLE=Woody Shaw - Bremen, 18 January 1983 - Disc 2
DYEAR=1983
DGENRE=Jazz
TTITLE0=Organ Grinder
TTITLE1=Katrina Ballerina
TTITLE2=Diane
TTITLE3=400 Years Ago Tomorrow
TTITLE4=Sweet Love of Mine
EXTD=YEAR: 1983
EXTT0=
EXTT1=
EXTT2=
EXTT3=
EXTT4=
PLAYORDER=
